<?xml version="1.0"?>
<!DOCTYPE svg PUBLIC "-//W3C//DTD SVG 1.1//EN" "http://www.w3.org/Graphics/SVG/1.1/DTD/svg11.dtd">
<svg width="40mm" height="40mm" viewBox="0 0 1000 1000" xmlns="http://www.w3.org/2000/svg" version="1.1">
    <g transform="scale(1,1)">
        <g id="graphpaper-7779a458">
            <g id="axis-7779a458">
                <g id="yaxis-7779a458">
                    <title>Y axis</title>
                    <g>
                        <path fill="none" stroke="rgb(0,0,0)" class="dcg-svg-axis-line"
                            paint-order="fill stroke markers" d=" M 500 0 L 500 1000" stroke-opacity="0.9"
                            stroke-miterlimit="10" stroke-width="1.5" stroke-dasharray="" />
                    </g>
                </g>
                <g id="xaxis-7779a458">
                    <title>X axis</title>
                    <g>
                        <path fill="none" stroke="rgb(0,0,0)" class="dcg-svg-axis-line"
                            paint-order="fill stroke markers" d=" M 0 500 L 1000 500" stroke-opacity="0.9"
                            stroke-miterlimit="10" stroke-width="1.5" stroke-dasharray="" />
                    </g>
                </g>
            </g>
        </g>
        <g id="expressions-7779a458">
            <g id="sketch-7779a458">
                <title>Expression 1</title>
                <g>
                    <path fill="none" stroke="#c74440" class="dcg-svg-curve" paint-order="fill stroke markers"
                        d=" M 665.625 500 L 665.625 500 L 668.4120193076897 491.5275518469364 L 670.7584682894156 482.77542068866023 L 672.6433109248583 473.7668564997878 L 674.0467536797519 464.52651471112847 L 674.950333478859 455.0803891308481 L 675.3370020291023 445.455739582917 L 675.1912061846542 435.68101446255577 L 674.4989640567532 425.78576842599546 L 673.2479365829722 415.80057544886404 L 671.4274942835808 405.75693750385193 L 669.0287789464708 395.6871891239376 L 666.0447599968317 385.6243981323177 L 662.4702853233133 375.60226283424134 L 658.3021263487519 365.65500597914416 L 653.5390171506349 355.81726581376995 L 648.1816874542604 346.1239845583209 L 641.4479183902906 335.43546438234733 L 633.9726393544487 325.02436589798333 L 625.7661557944142 314.9407215060668 L 616.8420791101247 305.2342582120167 L 607.2173234968542 295.95418273786913 L 598.0900175841568 288.1023868696492 L 588.4413521569898 280.65922123635255 L 578.2896831023587 273.65739349443675 L 567.6553432145131 267.1287812233413 L 556.560604249103 261.1043155538879 L 545.0296322613436 255.6138665586605 L 533.0884363117091 250.68613078601908 L 520.7648106440961 246.34852131533938 L 508.0882704626181 242.62706070582414 L 500 240.625"
                        stroke-linecap="round" stroke-linejoin="round" stroke-miterlimit="10" stroke-width="10"
                        stroke-opacity="0.9" stroke-dasharray="" />
                </g>
            </g>
        </g>
        <g id="labels-7779a458" />
    </g>
</svg>